<?xml version="1.0" encoding="UTF-8"?>
<!--Generator: Apple Native CoreSVG 123-->
<!DOCTYPE svg
PUBLIC "-//W3C//DTD SVG 1.1//EN"
       "http://www.w3.org/Graphics/SVG/1.1/DTD/svg11.dtd">
<svg version="1.1" xmlns="http://www.w3.org/2000/svg" xmlns:xlink="http://www.w3.org/1999/xlink" width="3300" height="2200">
 <!--glyph: "uni100394.medium", point size: 100.000000, font version: "Version 15.0d7e11", template writer version: "5"-->
 <g id="Notes">
  <rect height="2200" id="artboard" style="fill:white;opacity:1" width="3300" x="0" y="0"/>
  <line id="" style="fill:none;stroke:black;opacity:1;stroke-width:0.5;" x1="263" x2="3036" y1="292" y2="292"/>
  <text style="stroke:none;fill:black;font-family:-apple-system,&quot;SF Pro Display&quot;,&quot;SF Pro Text&quot;,Helvetica,sans-serif;font-weight:bold;" transform="matrix(1 0 0 1 263 322)">Weight/Scale Variations</text>
  <text style="stroke:none;fill:black;font-family:-apple-system,&quot;SF Pro Display&quot;,&quot;SF Pro Text&quot;,Helvetica,sans-serif;text-anchor:middle;" transform="matrix(1 0 0 1 559.711 322)">Ultralight</text>
  <text style="stroke:none;fill:black;font-family:-apple-system,&quot;SF Pro Display&quot;,&quot;SF Pro Text&quot;,Helvetica,sans-serif;text-anchor:middle;" transform="matrix(1 0 0 1 856.422 322)">Thin</text>
  <text style="stroke:none;fill:black;font-family:-apple-system,&quot;SF Pro Display&quot;,&quot;SF Pro Text&quot;,Helvetica,sans-serif;text-anchor:middle;" transform="matrix(1 0 0 1 1153.13 322)">Light</text>
  <text style="stroke:none;fill:black;font-family:-apple-system,&quot;SF Pro Display&quot;,&quot;SF Pro Text&quot;,Helvetica,sans-serif;text-anchor:middle;" transform="matrix(1 0 0 1 1449.84 322)">Regular</text>
  <text style="stroke:none;fill:black;font-family:-apple-system,&quot;SF Pro Display&quot;,&quot;SF Pro Text&quot;,Helvetica,sans-serif;text-anchor:middle;" transform="matrix(1 0 0 1 1746.56 322)">Medium</text>
  <text style="stroke:none;fill:black;font-family:-apple-system,&quot;SF Pro Display&quot;,&quot;SF Pro Text&quot;,Helvetica,sans-serif;text-anchor:middle;" transform="matrix(1 0 0 1 2043.27 322)">Semibold</text>
  <text style="stroke:none;fill:black;font-family:-apple-system,&quot;SF Pro Display&quot;,&quot;SF Pro Text&quot;,Helvetica,sans-serif;text-anchor:middle;" transform="matrix(1 0 0 1 2339.98 322)">Bold</text>
  <text style="stroke:none;fill:black;font-family:-apple-system,&quot;SF Pro Display&quot;,&quot;SF Pro Text&quot;,Helvetica,sans-serif;text-anchor:middle;" transform="matrix(1 0 0 1 2636.69 322)">Heavy</text>
  <text style="stroke:none;fill:black;font-family:-apple-system,&quot;SF Pro Display&quot;,&quot;SF Pro Text&quot;,Helvetica,sans-serif;text-anchor:middle;" transform="matrix(1 0 0 1 2933.4 322)">Black</text>
  <line id="" style="fill:none;stroke:black;opacity:1;stroke-width:0.5;" x1="263" x2="3036" y1="1903" y2="1903"/>
  <g id="" transform="matrix(1 0 0 1 263 1933)">
   <path d="M 9.24805 0.830078 C 13.5547 0.830078 17.1387 -2.74414 17.1387 -7.05078 C 17.1387 -11.3574 13.5449 -14.9316 9.23828 -14.9316 C 4.94141 -14.9316 1.36719 -11.3574 1.36719 -7.05078 C 1.36719 -2.74414 4.95117 0.830078 9.24805 0.830078 Z M 9.24805 -0.654297 C 5.70312 -0.654297 2.87109 -3.49609 2.87109 -7.05078 C 2.87109 -10.6055 5.69336 -13.4473 9.23828 -13.4473 C 12.793 -13.4473 15.6348 -10.6055 15.6445 -7.05078 C 15.6543 -3.49609 12.8027 -0.654297 9.24805 -0.654297 Z M 9.22852 -3.42773 C 9.69727 -3.42773 9.9707 -3.74023 9.9707 -4.25781 L 9.9707 -6.31836 L 12.1973 -6.31836 C 12.6953 -6.31836 13.0371 -6.57227 13.0371 -7.04102 C 13.0371 -7.51953 12.7148 -7.7832 12.1973 -7.7832 L 9.9707 -7.7832 L 9.9707 -10.0098 C 9.9707 -10.5273 9.69727 -10.8496 9.22852 -10.8496 C 8.75977 -10.8496 8.50586 -10.5078 8.50586 -10.0098 L 8.50586 -7.7832 L 6.29883 -7.7832 C 5.78125 -7.7832 5.44922 -7.51953 5.44922 -7.04102 C 5.44922 -6.57227 5.80078 -6.31836 6.29883 -6.31836 L 8.50586 -6.31836 L 8.50586 -4.25781 C 8.50586 -3.75977 8.75977 -3.42773 9.22852 -3.42773 Z"/>
  </g>
  <g id="" transform="matrix(1 0 0 1 281.506 1933)">
   <path d="M 11.709 2.91016 C 17.1582 2.91016 21.6699 -1.60156 21.6699 -7.05078 C 21.6699 -12.4902 17.1484 -17.0117 11.6992 -17.0117 C 6.25977 -17.0117 1.74805 -12.4902 1.74805 -7.05078 C 1.74805 -1.60156 6.26953 2.91016 11.709 2.91016 Z M 11.709 1.25 C 7.09961 1.25 3.41797 -2.44141 3.41797 -7.05078 C 3.41797 -11.6504 7.08984 -15.3516 11.6992 -15.3516 C 16.3086 -15.3516 20 -11.6504 20.0098 -7.05078 C 20.0195 -2.44141 16.3184 1.25 11.709 1.25 Z M 11.6895 -2.41211 C 12.207 -2.41211 12.5195 -2.77344 12.5195 -3.33984 L 12.5195 -6.23047 L 15.5762 -6.23047 C 16.123 -6.23047 16.5039 -6.51367 16.5039 -7.03125 C 16.5039 -7.55859 16.1426 -7.86133 15.5762 -7.86133 L 12.5195 -7.86133 L 12.5195 -10.9277 C 12.5195 -11.5039 12.207 -11.8555 11.6895 -11.8555 C 11.1719 -11.8555 10.8789 -11.4844 10.8789 -10.9277 L 10.8789 -7.86133 L 7.83203 -7.86133 C 7.26562 -7.86133 6.89453 -7.55859 6.89453 -7.03125 C 6.89453 -6.51367 7.28516 -6.23047 7.83203 -6.23047 L 10.8789 -6.23047 L 10.8789 -3.33984 C 10.8789 -2.79297 11.1719 -2.41211 11.6895 -2.41211 Z"/>
  </g>
  <g id="" transform="matrix(1 0 0 1 304.924 1933)">
   <path d="M 14.9707 5.67383 C 21.9336 5.67383 27.6953 -0.078125 27.6953 -7.04102 C 27.6953 -14.0039 21.9238 -19.7559 14.9609 -19.7559 C 8.00781 -19.7559 2.25586 -14.0039 2.25586 -7.04102 C 2.25586 -0.078125 8.01758 5.67383 14.9707 5.67383 Z M 14.9707 3.85742 C 8.93555 3.85742 4.08203 -1.00586 4.08203 -7.04102 C 4.08203 -13.0762 8.92578 -17.9395 14.9609 -17.9395 C 21.0059 -17.9395 25.8594 -13.0762 25.8691 -7.04102 C 25.8789 -1.00586 21.0156 3.85742 14.9707 3.85742 Z M 14.9512 -1.06445 C 15.5176 -1.06445 15.8691 -1.45508 15.8691 -2.06055 L 15.8691 -6.13281 L 20.1074 -6.13281 C 20.6934 -6.13281 21.1133 -6.46484 21.1133 -7.02148 C 21.1133 -7.59766 20.7227 -7.93945 20.1074 -7.93945 L 15.8691 -7.93945 L 15.8691 -12.1875 C 15.8691 -12.8027 15.5176 -13.1934 14.9512 -13.1934 C 14.3848 -13.1934 14.0625 -12.7832 14.0625 -12.1875 L 14.0625 -7.93945 L 9.83398 -7.93945 C 9.21875 -7.93945 8.80859 -7.59766 8.80859 -7.02148 C 8.80859 -6.46484 9.23828 -6.13281 9.83398 -6.13281 L 14.0625 -6.13281 L 14.0625 -2.06055 C 14.0625 -1.47461 14.3848 -1.06445 14.9512 -1.06445 Z"/>
  </g>
  <text style="stroke:none;fill:black;font-family:-apple-system,&quot;SF Pro Display&quot;,&quot;SF Pro Text&quot;,Helvetica,sans-serif;font-weight:bold;" transform="matrix(1 0 0 1 263 1953)">Design Variations</text>
  <text style="stroke:none;fill:black;font-family:-apple-system,&quot;SF Pro Display&quot;,&quot;SF Pro Text&quot;,Helvetica,sans-serif;" transform="matrix(1 0 0 1 263 1971)">Symbols are supported in up to nine weights and three scales.</text>
  <text style="stroke:none;fill:black;font-family:-apple-system,&quot;SF Pro Display&quot;,&quot;SF Pro Text&quot;,Helvetica,sans-serif;" transform="matrix(1 0 0 1 263 1989)">For optimal layout with text and other symbols, vertically align</text>
  <text style="stroke:none;fill:black;font-family:-apple-system,&quot;SF Pro Display&quot;,&quot;SF Pro Text&quot;,Helvetica,sans-serif;" transform="matrix(1 0 0 1 263 2007)">symbols with the adjacent text.</text>
  <rect height="14" id="" style="fill:#00AEEF;stroke:none;opacity:0.4;" width="3" x="776" y="1919"/>
  <g id="" transform="matrix(1 0 0 1 779 1933)">
   <path d="M 10.5273 0 L 12.373 0 L 7.17773 -14.0918 L 5.43945 -14.0918 L 0.244141 0 L 2.08984 0 L 3.50586 -4.0332 L 9.11133 -4.0332 Z M 6.2793 -11.9531 L 6.33789 -11.9531 L 8.59375 -5.52734 L 4.02344 -5.52734 Z"/>
  </g>
  <rect height="14" id="" style="fill:#00AEEF;stroke:none;opacity:0.4;" width="3" x="791.617" y="1919"/>
  <text style="stroke:none;fill:black;font-family:-apple-system,&quot;SF Pro Display&quot;,&quot;SF Pro Text&quot;,Helvetica,sans-serif;font-weight:bold;" transform="matrix(1 0 0 1 776 1953)">Margins</text>
  <text style="stroke:none;fill:black;font-family:-apple-system,&quot;SF Pro Display&quot;,&quot;SF Pro Text&quot;,Helvetica,sans-serif;" transform="matrix(1 0 0 1 776 1971)">Leading and trailing margins on the left and right side of each symbol</text>
  <text style="stroke:none;fill:black;font-family:-apple-system,&quot;SF Pro Display&quot;,&quot;SF Pro Text&quot;,Helvetica,sans-serif;" transform="matrix(1 0 0 1 776 1989)">can be adjusted by modifying the width of the blue rectangles.</text>
  <text style="stroke:none;fill:black;font-family:-apple-system,&quot;SF Pro Display&quot;,&quot;SF Pro Text&quot;,Helvetica,sans-serif;" transform="matrix(1 0 0 1 776 2007)">Modifications are automatically applied proportionally to all</text>
  <text style="stroke:none;fill:black;font-family:-apple-system,&quot;SF Pro Display&quot;,&quot;SF Pro Text&quot;,Helvetica,sans-serif;" transform="matrix(1 0 0 1 776 2025)">scales and weights.</text>
  <g id="" transform="matrix(1 0 0 1 1289 1933)">
   <path d="M 2.83203 3.11523 L 4.375 4.6582 C 5.22461 5.48828 6.19141 5.41992 7.06055 4.46289 L 17.2754 -6.66016 C 17.7051 -6.36719 18.0957 -6.37695 18.5645 -6.47461 L 19.6094 -6.68945 L 20.3027 -5.99609 L 20.2539 -5.47852 C 20.1855 -4.95117 20.3516 -4.53125 20.8496 -4.0332 L 21.6602 -3.22266 C 22.168 -2.71484 22.8223 -2.68555 23.3008 -3.16406 L 26.5527 -6.41602 C 27.0312 -6.89453 27.0117 -7.54883 26.5039 -8.05664 L 25.6836 -8.87695 C 25.1855 -9.375 24.7754 -9.55078 24.2383 -9.47266 L 23.7109 -9.41406 L 23.0566 -10.0781 L 23.3398 -11.2207 C 23.4863 -11.7871 23.3398 -12.2559 22.7148 -12.8613 L 20.3027 -15.2539 C 16.7578 -18.7793 12.2266 -18.6719 9.11133 -15.5371 C 8.69141 -15.1074 8.64258 -14.5215 8.91602 -14.0918 C 9.15039 -13.7207 9.62891 -13.4961 10.2734 -13.6621 C 11.7871 -14.043 13.3008 -13.9258 14.7852 -12.9199 L 14.1602 -11.3379 C 13.9258 -10.752 13.9453 -10.2734 14.1797 -9.83398 L 3.01758 0.439453 C 2.08008 1.30859 1.97266 2.25586 2.83203 3.11523 Z M 10.6738 -15.1465 C 13.3398 -17.1387 16.6504 -16.8262 19.0527 -14.4141 L 21.6797 -11.8066 C 21.9141 -11.5723 21.9434 -11.3867 21.8848 -11.0938 L 21.5039 -9.53125 L 23.0762 -7.95898 L 24.043 -8.04688 C 24.3262 -8.07617 24.4141 -8.05664 24.6387 -7.83203 L 25.2637 -7.20703 L 22.5098 -4.46289 L 21.8848 -5.07812 C 21.6602 -5.30273 21.6406 -5.40039 21.6699 -5.68359 L 21.7578 -6.64062 L 20.1953 -8.20312 L 18.5742 -7.89062 C 18.291 -7.83203 18.1445 -7.83203 17.9102 -8.07617 L 15.7324 -10.2539 C 15.5078 -10.4883 15.4785 -10.625 15.6055 -10.9473 L 16.5527 -13.2227 C 14.9512 -14.7559 12.8418 -15.6055 10.8008 -14.9512 C 10.7129 -14.9219 10.6445 -14.9414 10.6152 -14.9805 C 10.5859 -15.0293 10.5859 -15.0781 10.6738 -15.1465 Z M 4.10156 2.41211 C 3.61328 1.91406 3.78906 1.61133 4.12109 1.30859 L 15.0781 -8.80859 L 16.3086 -7.57812 L 6.15234 3.34961 C 5.84961 3.68164 5.46875 3.7793 5.06836 3.37891 Z"/>
  </g>
  <text style="stroke:none;fill:black;font-family:-apple-system,&quot;SF Pro Display&quot;,&quot;SF Pro Text&quot;,Helvetica,sans-serif;font-weight:bold;" transform="matrix(1 0 0 1 1289 1953)">Exporting</text>
  <text style="stroke:none;fill:black;font-family:-apple-system,&quot;SF Pro Display&quot;,&quot;SF Pro Text&quot;,Helvetica,sans-serif;" transform="matrix(1 0 0 1 1289 1971)">Symbols should be outlined when exporting to ensure the</text>
  <text style="stroke:none;fill:black;font-family:-apple-system,&quot;SF Pro Display&quot;,&quot;SF Pro Text&quot;,Helvetica,sans-serif;" transform="matrix(1 0 0 1 1289 1989)">design is preserved when submitting to Xcode.</text>
  <text id="template-version" style="stroke:none;fill:black;font-family:-apple-system,&quot;SF Pro Display&quot;,&quot;SF Pro Text&quot;,Helvetica,sans-serif;text-anchor:end;" transform="matrix(1 0 0 1 3036 1933)">Template v.1.0</text>
  <text style="stroke:none;fill:black;font-family:-apple-system,&quot;SF Pro Display&quot;,&quot;SF Pro Text&quot;,Helvetica,sans-serif;text-anchor:end;" transform="matrix(1 0 0 1 3036 1951)">Generated from bandage.fill</text>
  <text style="stroke:none;fill:black;font-family:-apple-system,&quot;SF Pro Display&quot;,&quot;SF Pro Text&quot;,Helvetica,sans-serif;text-anchor:end;" transform="matrix(1 0 0 1 3036 1969)">Typeset at 100 points</text>
  <text style="stroke:none;fill:black;font-family:-apple-system,&quot;SF Pro Display&quot;,&quot;SF Pro Text&quot;,Helvetica,sans-serif;" transform="matrix(1 0 0 1 263 726)">Small</text>
  <text style="stroke:none;fill:black;font-family:-apple-system,&quot;SF Pro Display&quot;,&quot;SF Pro Text&quot;,Helvetica,sans-serif;" transform="matrix(1 0 0 1 263 1156)">Medium</text>
  <text style="stroke:none;fill:black;font-family:-apple-system,&quot;SF Pro Display&quot;,&quot;SF Pro Text&quot;,Helvetica,sans-serif;" transform="matrix(1 0 0 1 263 1586)">Large</text>
 </g>
 <g id="Guides">
  <g id="H-reference" style="fill:#27AAE1;stroke:none;" transform="matrix(1 0 0 1 339 696)">
   <path d="M 54.9316 0 L 57.666 0 L 30.5664 -70.459 L 28.0762 -70.459 L 0.976562 0 L 3.66211 0 L 12.9395 -24.4629 L 45.7031 -24.4629 Z M 29.1992 -67.0898 L 29.4434 -67.0898 L 44.8242 -26.709 L 13.8184 -26.709 Z"/>
  </g>
  <line id="Baseline-S" style="fill:none;stroke:#27AAE1;opacity:1;stroke-width:0.577;" x1="263" x2="3036" y1="696" y2="696"/>
  <line id="Capline-S" style="fill:none;stroke:#27AAE1;opacity:1;stroke-width:0.577;" x1="263" x2="3036" y1="625.541" y2="625.541"/>
  <g id="H-reference" style="fill:#27AAE1;stroke:none;" transform="matrix(1 0 0 1 339 1126)">
   <path d="M 54.9316 0 L 57.666 0 L 30.5664 -70.459 L 28.0762 -70.459 L 0.976562 0 L 3.66211 0 L 12.9395 -24.4629 L 45.7031 -24.4629 Z M 29.1992 -67.0898 L 29.4434 -67.0898 L 44.8242 -26.709 L 13.8184 -26.709 Z"/>
  </g>
  <line id="Baseline-M" style="fill:none;stroke:#27AAE1;opacity:1;stroke-width:0.577;" x1="263" x2="3036" y1="1126" y2="1126"/>
  <line id="Capline-M" style="fill:none;stroke:#27AAE1;opacity:1;stroke-width:0.577;" x1="263" x2="3036" y1="1055.54" y2="1055.54"/>
  <g id="H-reference" style="fill:#27AAE1;stroke:none;" transform="matrix(1 0 0 1 339 1556)">
   <path d="M 54.9316 0 L 57.666 0 L 30.5664 -70.459 L 28.0762 -70.459 L 0.976562 0 L 3.66211 0 L 12.9395 -24.4629 L 45.7031 -24.4629 Z M 29.1992 -67.0898 L 29.4434 -67.0898 L 44.8242 -26.709 L 13.8184 -26.709 Z"/>
  </g>
  <line id="Baseline-L" style="fill:none;stroke:#27AAE1;opacity:1;stroke-width:0.577;" x1="263" x2="3036" y1="1556" y2="1556"/>
  <line id="Capline-L" style="fill:none;stroke:#27AAE1;opacity:1;stroke-width:0.577;" x1="263" x2="3036" y1="1485.54" y2="1485.54"/>
  <rect height="119.336" id="left-margin" style="fill:#00AEEF;stroke:none;opacity:0.4;" width="11.2226" x="1388.3" y="1030.79"/>
  <rect height="119.336" id="right-margin" style="fill:#00AEEF;stroke:none;opacity:0.4;" width="11.2406" x="1500.15" y="1030.79"/>
 </g>
 <g id="Symbols">
  <g id="Black-L" transform="matrix(1 0 0 1 2850.56 1556)">
   <path d="M 129.492 -30.6152 L 139.893 -41.9922 C 155.078 -58.1055 154.59 -78.0762 140.381 -92.5293 C 126.172 -106.934 106.055 -107.324 89.8438 -91.9922 L 78.5645 -81.5918 C 86.5234 -84.7168 93.3594 -81.0547 99.9023 -74.5117 L 122.656 -51.8066 C 129.248 -45.2148 132.617 -38.6719 129.492 -30.6152 Z M 73.877 -3.32031 C 80.7129 3.4668 87.207 3.66211 94.1895 -3.32031 L 114.404 -23.5352 C 121.436 -30.5664 121.289 -37.0117 114.453 -43.8477 L 91.6992 -66.6016 C 84.9121 -73.3887 78.4668 -73.584 71.3867 -66.5039 L 51.2207 -46.3379 C 44.2383 -39.3555 44.3848 -32.8125 51.2207 -25.9766 Z M 78.1738 -44.3848 C 75.4883 -47.0703 75.4883 -51.3184 78.0762 -53.9062 C 80.7617 -56.543 84.9121 -56.543 87.5977 -53.9062 C 90.1855 -51.3184 90.2344 -47.168 87.4512 -44.3848 C 84.9121 -41.9434 80.6641 -41.8945 78.1738 -44.3848 Z M 63.8184 -30.2246 C 61.1328 -32.8613 61.1328 -36.9629 63.8184 -39.6973 C 66.4551 -42.3828 70.6543 -42.2852 73.291 -39.5508 C 75.7812 -37.0605 75.8789 -32.8613 73.291 -30.2734 C 70.5078 -27.4902 66.4062 -27.6367 63.8184 -30.2246 Z M 101.758 -30.2246 C 99.1699 -27.6367 94.9707 -27.6367 92.2852 -30.2734 C 89.7949 -32.8125 89.7949 -37.1094 92.2852 -39.5508 C 95.1172 -42.2852 99.1699 -42.2852 101.758 -39.6973 C 104.443 -37.0117 104.443 -32.8613 101.758 -30.2246 Z M 25.293 22.6074 C 39.4531 37.0117 59.6191 37.4023 75.8301 22.1191 L 87.1094 11.7188 C 79.1016 14.8438 72.2656 11.1816 65.7227 4.63867 L 43.0176 -18.0664 C 36.4258 -24.6582 33.0566 -31.25 36.1816 -39.2578 L 25.7812 -27.9297 C 10.5957 -11.7676 11.084 8.20312 25.293 22.6074 Z M 78.0762 -15.918 C 75.4883 -18.5059 75.3418 -22.6074 78.1738 -25.4395 C 80.7617 -28.0273 85.0098 -27.9297 87.4512 -25.4395 C 90.0879 -22.7051 90.2344 -18.5059 87.5977 -15.918 C 84.8145 -13.2812 80.7617 -13.2812 78.0762 -15.918 Z"/>
  </g>
  <g id="Heavy-L" transform="matrix(1 0 0 1 2554.85 1556)">
   <path d="M 127.539 -31.25 L 138.037 -42.6758 C 152.979 -58.3496 152.588 -77.832 138.721 -91.8945 C 124.854 -105.957 105.225 -106.201 89.502 -91.2598 L 78.125 -80.7129 C 85.4004 -83.5938 92.0898 -80.5176 98.4375 -74.1699 L 121.338 -51.2695 C 127.734 -44.8242 130.42 -38.5742 127.539 -31.25 Z M 72.7051 -3.41797 C 79.3945 3.27148 85.791 3.4668 92.627 -3.41797 L 113.428 -24.2188 C 120.361 -31.1035 120.215 -37.4512 113.525 -44.1406 L 90.9668 -66.6992 C 84.2773 -73.3887 77.9297 -73.5352 71.0449 -66.6016 L 50.2441 -45.8008 C 43.3594 -38.9648 43.5547 -32.5684 50.2441 -25.8789 Z M 77.3438 -44.4336 C 74.7559 -47.0215 74.7559 -51.0742 77.2461 -53.5645 C 79.834 -56.1523 83.8379 -56.1523 86.4258 -53.5645 C 88.916 -51.0742 89.0137 -47.0703 86.3281 -44.4336 C 83.8867 -42.041 79.7852 -41.9922 77.3438 -44.4336 Z M 63.2324 -30.4199 C 60.6445 -33.0078 60.6445 -36.9629 63.2324 -39.5996 C 65.7715 -42.1875 69.8242 -42.0898 72.4121 -39.502 C 74.7559 -37.0605 74.9023 -33.0078 72.4121 -30.5176 C 69.6777 -27.832 65.7227 -27.9297 63.2324 -30.4199 Z M 100.391 -30.4199 C 97.9004 -27.9297 93.8477 -27.9297 91.2598 -30.5176 C 88.8184 -32.959 88.8184 -37.1094 91.2598 -39.502 C 93.9453 -42.1387 97.9004 -42.0898 100.391 -39.5996 C 102.979 -37.0117 102.979 -33.0078 100.391 -30.4199 Z M 24.9512 21.875 C 38.8184 35.9375 58.4961 36.2305 74.2188 21.1914 L 85.5469 10.6445 C 78.2227 13.5254 71.6797 10.5469 65.332 4.19922 L 42.4316 -18.75 C 35.9863 -25.1465 33.3008 -31.3965 36.1816 -38.7695 L 25.6348 -27.3926 C 10.6934 -11.7188 11.084 7.8125 24.9512 21.875 Z M 77.2461 -16.4062 C 74.7559 -18.8965 74.6582 -22.8516 77.3438 -25.5859 C 79.834 -28.0762 83.9355 -27.9785 86.3281 -25.5859 C 88.8672 -22.9492 89.0137 -18.8965 86.4258 -16.4062 C 83.7891 -13.8184 79.834 -13.8184 77.2461 -16.4062 Z"/>
  </g>
  <g id="Bold-L" transform="matrix(1 0 0 1 2259.24 1556)">
   <path d="M 125.391 -31.8848 L 136.035 -43.4082 C 150.586 -58.5938 150.342 -77.5879 136.865 -91.2109 C 123.389 -104.883 104.248 -104.98 89.0625 -90.3809 L 77.5879 -79.7363 C 84.1309 -82.3242 90.5762 -79.9316 96.7773 -73.7793 L 119.922 -50.6348 C 126.074 -44.4336 127.979 -38.4766 125.391 -31.8848 Z M 71.3867 -3.4668 C 77.9297 3.07617 84.1797 3.22266 90.8691 -3.4668 L 112.354 -24.9512 C 119.141 -31.7383 118.994 -37.9395 112.451 -44.4824 L 90.0879 -66.7969 C 83.5449 -73.3398 77.3926 -73.4863 70.6055 -66.6992 L 49.1211 -45.2148 C 42.4316 -38.5254 42.5781 -32.2754 49.1211 -25.7324 Z M 76.416 -44.4336 C 73.9258 -46.9238 73.9258 -50.8301 76.3672 -53.2227 C 78.8574 -55.7129 82.666 -55.7129 85.1562 -53.2227 C 87.5488 -50.8301 87.6465 -47.0215 85.0586 -44.4336 C 82.7148 -42.1387 78.7598 -42.1387 76.416 -44.4336 Z M 62.5977 -30.7129 C 60.1074 -33.2031 60.1074 -37.0117 62.5977 -39.502 C 65.0391 -41.9922 68.8965 -41.8945 71.3867 -39.4043 C 73.6816 -37.0605 73.7793 -33.2031 71.3867 -30.8105 C 68.7988 -28.1738 64.9902 -28.3203 62.5977 -30.7129 Z M 98.877 -30.7129 C 96.4844 -28.3203 92.5781 -28.3203 90.0879 -30.8105 C 87.7441 -33.1055 87.7441 -37.1094 90.0879 -39.4043 C 92.6758 -41.9434 96.4844 -41.8945 98.877 -39.502 C 101.367 -37.0117 101.367 -33.2031 98.877 -30.7129 Z M 24.6094 21.0449 C 38.0859 34.7168 57.2754 34.8633 72.4121 20.166 L 83.7891 9.47266 C 77.2461 12.0605 71.0449 9.86328 64.8926 3.71094 L 41.748 -19.4336 C 35.5469 -25.6348 33.5449 -31.5918 36.1816 -38.1836 L 25.4883 -26.7578 C 10.8398 -11.6699 11.1328 7.32422 24.6094 21.0449 Z M 76.3672 -16.9434 C 73.9258 -19.3359 73.8281 -23.1445 76.416 -25.7324 C 78.8574 -28.125 82.7637 -28.0762 85.0586 -25.7324 C 87.5488 -23.2422 87.6465 -19.3359 85.1562 -16.9434 C 82.5684 -14.4531 78.8574 -14.4531 76.3672 -16.9434 Z"/>
  </g>
  <g id="Semibold-L" transform="matrix(1 0 0 1 1963.29 1556)">
   <path d="M 123.877 -32.373 L 134.619 -43.9453 C 148.975 -58.7891 148.828 -77.3926 135.596 -90.7715 C 122.363 -104.15 103.613 -104.15 88.7695 -89.7949 L 77.1973 -79.0527 C 83.252 -81.4941 89.5996 -79.4922 95.6055 -73.4863 L 118.896 -50.1953 C 124.951 -44.1406 126.318 -38.4277 123.877 -32.373 Z M 70.459 -3.51562 C 76.9043 2.92969 83.0566 3.07617 89.6484 -3.51562 L 111.621 -25.4883 C 118.311 -32.1777 118.164 -38.2324 111.719 -44.6777 L 89.502 -66.8945 C 83.0566 -73.3398 77.002 -73.4375 70.3125 -66.7969 L 48.3398 -44.8242 C 41.748 -38.2324 41.8945 -32.0801 48.3398 -25.6348 Z M 75.7812 -44.4824 C 73.3887 -46.875 73.3887 -50.6836 75.7324 -53.0273 C 78.125 -55.4199 81.8359 -55.4199 84.2773 -53.0273 C 86.6211 -50.6836 86.6699 -46.9727 84.1797 -44.4824 C 81.8848 -42.2363 78.0762 -42.1875 75.7812 -44.4824 Z M 62.1582 -30.9082 C 59.7168 -33.3008 59.7168 -37.0117 62.1582 -39.4531 C 64.5508 -41.8457 68.2617 -41.7969 70.7031 -39.3555 C 72.9004 -37.0605 73.0469 -33.3008 70.7031 -30.957 C 68.1641 -28.4668 64.502 -28.5645 62.1582 -30.9082 Z M 97.8516 -30.9082 C 95.5078 -28.5645 91.6992 -28.5645 89.3066 -30.957 C 87.0117 -33.252 87.0117 -37.1094 89.3066 -39.3555 C 91.7969 -41.8457 95.5078 -41.7969 97.8516 -39.4531 C 100.244 -37.0117 100.244 -33.3008 97.8516 -30.9082 Z M 24.3652 20.459 C 37.5977 33.8379 56.4453 33.9844 71.1914 19.4336 L 82.6172 8.64258 C 76.5625 11.084 70.6055 9.375 64.5508 3.36914 L 41.2598 -19.9707 C 35.2051 -26.0254 33.7402 -31.7383 36.1816 -37.793 L 25.3906 -26.3672 C 10.9375 -11.6211 11.1816 7.03125 24.3652 20.459 Z M 75.7324 -17.334 C 73.3887 -19.6289 73.291 -23.3398 75.7812 -25.8301 C 78.125 -28.1738 81.9336 -28.125 84.1797 -25.8301 C 86.5723 -23.4375 86.6699 -19.6289 84.2773 -17.334 C 81.7871 -14.8926 78.125 -14.8926 75.7324 -17.334 Z"/>
  </g>
  <g id="Medium-L" transform="matrix(1 0 0 1 1667.16 1556)">
   <path d="M 122.754 -32.7148 L 133.545 -44.3359 C 147.754 -58.9355 147.656 -77.2461 134.619 -90.4297 C 121.582 -103.564 103.125 -103.516 88.5742 -89.3066 L 76.9531 -78.5156 C 82.5684 -80.8105 88.8184 -79.1992 94.7266 -73.291 L 118.164 -49.8535 C 124.072 -43.9453 125.049 -38.3789 122.754 -32.7148 Z M 69.7754 -3.56445 C 76.123 2.83203 82.2266 2.97852 88.7695 -3.56445 L 111.084 -25.8789 C 117.627 -32.4707 117.529 -38.5254 111.133 -44.873 L 89.0625 -66.9434 C 82.7148 -73.291 76.6602 -73.4375 70.1172 -66.8457 L 47.7539 -44.5312 C 41.2598 -38.0371 41.4062 -31.9336 47.7539 -25.5371 Z M 75.3418 -44.4824 C 72.9492 -46.8262 72.9492 -50.5371 75.2441 -52.832 C 77.6367 -55.1758 81.2012 -55.1758 83.5938 -52.832 C 85.8887 -50.5371 85.9863 -46.9238 83.4961 -44.4824 C 81.2988 -42.2852 77.5391 -42.2852 75.3418 -44.4824 Z M 61.8164 -31.0547 C 59.4238 -33.3984 59.4238 -37.0117 61.8164 -39.4043 C 64.1602 -41.748 67.7734 -41.6992 70.166 -39.3066 C 72.3633 -37.1094 72.4609 -33.3984 70.166 -31.1035 C 67.6758 -28.6621 64.1113 -28.7598 61.8164 -31.0547 Z M 97.0215 -31.0547 C 94.7266 -28.7598 91.0645 -28.7598 88.6719 -31.1035 C 86.4746 -33.3496 86.4746 -37.1094 88.6719 -39.3066 C 91.1621 -41.748 94.7266 -41.6992 97.0215 -39.4043 C 99.4141 -37.0117 99.4141 -33.3984 97.0215 -31.0547 Z M 24.2188 20.0195 C 37.207 33.2031 55.8105 33.252 70.2637 18.8965 L 81.6895 8.05664 C 76.0254 10.3027 70.2637 9.0332 64.3066 3.07617 L 40.918 -20.3125 C 34.9609 -26.2695 33.8867 -31.8359 36.1816 -37.5 L 25.293 -26.0254 C 10.9863 -11.5723 11.1816 6.78711 24.2188 20.0195 Z M 75.2441 -17.5781 C 72.9492 -19.873 72.8516 -23.4863 75.3418 -25.9277 C 77.6367 -28.2227 81.2988 -28.1738 83.4961 -25.9277 C 85.8887 -23.5352 85.9863 -19.873 83.5938 -17.5781 C 81.1523 -15.2344 77.6367 -15.2344 75.2441 -17.5781 Z"/>
  </g>
  <g id="Regular-L" transform="matrix(1 0 0 1 1371.21 1556)">
   <path d="M 121.289 -33.2031 L 132.129 -44.873 C 146.143 -59.1309 146.143 -77.0508 133.35 -89.9414 C 120.605 -102.832 102.441 -102.686 88.2812 -88.7207 L 76.5625 -77.8809 C 81.6895 -79.9805 87.8418 -78.7598 93.6035 -72.998 L 117.188 -49.4141 C 122.949 -43.6523 123.34 -38.3301 121.289 -33.2031 Z M 68.8477 -3.61328 C 75.0977 2.68555 81.1523 2.83203 87.5488 -3.61328 L 110.352 -26.416 C 116.797 -32.9102 116.699 -38.8184 110.449 -45.0684 L 88.4766 -67.041 C 82.2266 -73.291 76.2695 -73.3887 69.8242 -66.9434 L 47.0215 -44.1406 C 40.5762 -37.7441 40.7227 -31.6895 47.0215 -25.4395 Z M 74.707 -44.4824 C 72.4121 -46.7773 72.4121 -50.3418 74.6094 -52.5879 C 76.9531 -54.8828 80.4199 -54.8828 82.7148 -52.5879 C 84.9609 -50.3418 85.0098 -46.875 82.666 -44.4824 C 80.5176 -42.334 76.8555 -42.334 74.707 -44.4824 Z M 61.377 -31.2012 C 59.0332 -33.5449 59.0332 -37.0117 61.377 -39.3066 C 63.6719 -41.6504 67.1387 -41.5527 69.4336 -39.2578 C 71.582 -37.1094 71.6797 -33.5449 69.4336 -31.2988 C 67.0898 -28.9062 63.5742 -29.0039 61.377 -31.2012 Z M 95.9961 -31.2012 C 93.75 -29.0039 90.1855 -29.0039 87.8906 -31.2988 C 85.7422 -33.4473 85.7422 -37.1094 87.8906 -39.2578 C 90.2832 -41.6504 93.75 -41.5527 95.9961 -39.3066 C 98.291 -37.0117 98.291 -33.5449 95.9961 -31.2012 Z M 23.9746 19.4336 C 36.7188 32.373 54.9805 32.373 69.043 18.2129 L 80.5176 7.22656 C 75.3418 9.32617 69.8242 8.54492 64.0137 2.7832 L 40.4297 -20.8496 C 34.6191 -26.6113 34.082 -31.9824 36.1816 -37.1582 L 25.1953 -25.6348 C 11.084 -11.5723 11.2305 6.49414 23.9746 19.4336 Z M 74.6094 -17.9688 C 72.4121 -20.166 72.3145 -23.6816 74.707 -26.0742 C 76.9531 -28.2715 80.5176 -28.1738 82.666 -26.0742 C 84.9609 -23.7305 85.0098 -20.166 82.7148 -17.9688 C 80.3223 -15.625 76.9531 -15.625 74.6094 -17.9688 Z"/>
  </g>
  <g id="Light-L" transform="matrix(1 0 0 1 1075.55 1556)">
   <path d="M 118.359 -32.373 L 130.225 -45.0195 C 143.799 -59.0332 144.043 -76.6602 131.592 -89.209 C 119.092 -101.807 101.318 -101.367 87.4023 -87.8906 L 74.707 -75.9766 C 79.3945 -78.8086 85.8398 -77.7344 91.1621 -72.4121 L 115.527 -48.0469 C 120.85 -42.7246 121.143 -37.0605 118.359 -32.373 Z M 67.9199 -3.90625 C 74.1211 2.29492 80.0781 2.49023 86.4258 -3.90625 L 108.984 -26.5137 C 115.381 -32.9102 115.283 -38.7695 109.082 -44.9707 L 87.3535 -66.748 C 81.1523 -72.9492 75.2441 -73.0469 68.8477 -66.6504 L 46.2402 -44.0918 C 39.8926 -37.6953 40.0391 -31.7383 46.2402 -25.5371 Z M 73.877 -44.7266 C 71.6797 -46.9238 71.6797 -50.2441 73.7793 -52.3438 C 75.9766 -54.541 79.248 -54.541 81.4453 -52.3438 C 83.5938 -50.2441 83.6426 -46.9727 81.3965 -44.7266 C 79.3457 -42.6758 75.9277 -42.6758 73.877 -44.7266 Z M 60.5469 -31.4453 C 58.3496 -33.6426 58.3496 -36.9141 60.5469 -39.1113 C 62.7441 -41.3086 66.0156 -41.2109 68.1641 -39.0137 C 70.2148 -36.9629 70.3125 -33.6426 68.1641 -31.543 C 65.918 -29.248 62.6465 -29.3457 60.5469 -31.4453 Z M 94.7266 -31.4453 C 92.627 -29.3457 89.2578 -29.3457 87.0605 -31.543 C 85.0098 -33.5449 85.0098 -36.9629 87.0605 -39.0137 C 89.3555 -41.3086 92.627 -41.2109 94.7266 -39.1113 C 96.9238 -36.9141 96.9238 -33.6426 94.7266 -31.4453 Z M 23.6328 18.75 C 36.0352 31.3965 54.0527 31.1523 67.8223 17.334 L 80.127 5.27344 C 75.3906 8.10547 69.873 7.66602 64.5508 2.39258 L 40.1367 -22.0703 C 34.8145 -27.3438 34.2285 -33.1055 37.0605 -37.8418 L 25.0488 -25.4395 C 11.2305 -11.7188 11.1816 6.10352 23.6328 18.75 Z M 73.7793 -18.1641 C 71.6797 -20.2637 71.582 -23.5352 73.877 -25.8301 C 75.9766 -27.9297 79.3457 -27.8809 81.3965 -25.8301 C 83.5938 -23.6328 83.6426 -20.2637 81.4453 -18.1641 C 79.1992 -15.9668 75.9766 -15.9668 73.7793 -18.1641 Z"/>
  </g>
  <g id="Thin-L" transform="matrix(1 0 0 1 780.226 1556)">
   <path d="M 114.453 -31.2988 L 127.686 -45.2637 C 140.723 -58.9355 141.357 -76.123 129.248 -88.2812 C 117.188 -100.439 99.7559 -99.6094 86.2305 -86.7188 L 72.2656 -73.4863 C 76.3672 -77.2461 83.252 -76.3184 87.9395 -71.6797 L 113.379 -46.1914 C 118.018 -41.5527 118.213 -35.4004 114.453 -31.2988 Z M 66.6504 -4.29688 C 72.7539 1.85547 78.6621 2.00195 84.9609 -4.29688 L 107.227 -26.6113 C 113.525 -32.9102 113.428 -38.7207 107.324 -44.873 L 85.8398 -66.3574 C 79.7363 -72.4609 73.9258 -72.5586 67.627 -66.2598 L 45.2637 -43.9941 C 38.9648 -37.6953 39.1113 -31.7871 45.2637 -25.6836 Z M 72.8027 -45.0195 C 70.752 -47.0703 70.752 -50.0977 72.7051 -52.0508 C 74.7559 -54.1016 77.7344 -54.1016 79.7852 -52.0508 C 81.7383 -50.0977 81.8359 -47.1191 79.6875 -45.0195 C 77.832 -43.1152 74.6582 -43.1152 72.8027 -45.0195 Z M 59.4238 -31.7383 C 57.373 -33.7891 57.373 -36.7676 59.4238 -38.8184 C 61.4746 -40.8691 64.4531 -40.7715 66.5039 -38.7207 C 68.4082 -36.8164 68.457 -33.7891 66.5039 -31.8359 C 64.4043 -29.6875 61.4258 -29.7852 59.4238 -31.7383 Z M 93.0664 -31.7383 C 91.0645 -29.7852 88.0371 -29.7852 85.9863 -31.8359 C 84.082 -33.6914 84.082 -36.8164 85.9863 -38.7207 C 88.0859 -40.8691 91.0645 -40.7715 93.0664 -38.8184 C 95.1172 -36.7676 95.1172 -33.7891 93.0664 -31.7383 Z M 23.1445 17.8223 C 35.1562 30.0781 52.8809 29.5898 66.1621 16.1621 L 79.6387 2.73438 C 75.4395 6.49414 69.9219 6.54297 65.2344 1.85547 L 39.6973 -23.6816 C 35.0586 -28.3203 34.4727 -34.5703 38.2324 -38.7207 L 24.8047 -25.1953 C 11.4746 -11.9141 11.1328 5.56641 23.1445 17.8223 Z M 72.7051 -18.457 C 70.752 -20.4102 70.6543 -23.3887 72.8027 -25.5371 C 74.7559 -27.4902 77.832 -27.4414 79.6875 -25.5371 C 81.7383 -23.4863 81.8359 -20.4102 79.7852 -18.457 C 77.6367 -16.4062 74.7559 -16.4062 72.7051 -18.457 Z"/>
  </g>
  <g id="Ultralight-L" transform="matrix(1 0 0 1 484.247 1556)">
   <path d="M 112.5 -30.7617 C 112.891 -31.1035 113.232 -31.4941 113.574 -31.8848 L 126.416 -45.3613 C 139.111 -58.8867 139.941 -75.8301 128.076 -87.793 C 116.162 -99.7559 98.9746 -98.6816 85.6445 -86.1328 L 71.9727 -73.1445 C 71.6309 -72.8516 71.2891 -72.5586 70.9961 -72.2168 L 71.9727 -73.1445 C 75.9277 -76.3184 82.2754 -75.293 86.2793 -71.2891 L 112.256 -45.2637 C 116.162 -41.3574 116.65 -35.7422 113.574 -31.8848 Z M 66.0156 -4.49219 C 72.0703 1.61133 77.9297 1.75781 84.1797 -4.49219 L 106.299 -26.709 C 112.549 -32.959 112.5 -38.7207 106.396 -44.8242 L 85.0586 -66.1133 C 79.0039 -72.2168 73.1934 -72.3145 66.9434 -66.0645 L 44.7754 -43.9453 C 38.4766 -37.6953 38.6719 -31.8359 44.7754 -25.7324 Z M 72.2168 -45.166 C 70.2637 -47.1191 70.2637 -50.0488 72.168 -51.9043 C 74.1211 -53.9062 76.9531 -53.9062 78.9062 -51.9043 C 80.8105 -50.0488 80.9082 -47.2168 78.8574 -45.166 C 77.0508 -43.3594 74.0234 -43.3594 72.2168 -45.166 Z M 58.8867 -31.8848 C 56.8848 -33.8379 56.8848 -36.6699 58.8867 -38.6719 C 60.8398 -40.625 63.6719 -40.5273 65.6738 -38.5742 C 67.4805 -36.7676 67.5293 -33.8379 65.6738 -31.9824 C 63.623 -29.9316 60.791 -29.9805 58.8867 -31.8848 Z M 92.1875 -31.8848 C 90.2832 -29.9805 87.4023 -29.9805 85.4004 -31.9824 C 83.5938 -33.7891 83.5938 -36.7676 85.4004 -38.5742 C 87.5 -40.625 90.2832 -40.5273 92.1875 -38.6719 C 94.1895 -36.6699 94.1895 -33.8379 92.1875 -31.8848 Z M 22.9492 17.334 C 34.7168 29.3945 52.2461 28.7598 65.332 15.5762 L 78.6621 2.09961 C 78.9062 1.9043 79.1504 1.66016 79.3945 1.41602 L 78.6621 2.09961 C 74.8535 5.66406 69.6777 5.71289 65.5762 1.61133 L 39.502 -24.5117 C 35.3516 -28.6133 34.668 -34.7168 38.2812 -38.623 L 38.8672 -39.209 C 38.6719 -39.0137 38.4766 -38.8184 38.2812 -38.623 L 24.6582 -25.0977 C 11.6211 -12.0117 11.1328 5.27344 22.9492 17.334 Z M 72.168 -18.6035 C 70.2637 -20.5078 70.166 -23.3398 72.2168 -25.3906 C 74.1211 -27.2949 77.0508 -27.1973 78.8574 -25.3906 C 80.8105 -23.3887 80.9082 -20.5078 78.9062 -18.6035 C 76.8555 -16.6504 74.1211 -16.6504 72.168 -18.6035 Z"/>
  </g>
  <g id="Black-M" transform="matrix(1 0 0 1 2868.43 1126)">
   <path d="M 101.416 -30.4199 L 109.863 -39.5996 C 121.777 -52.6367 121.387 -68.5547 110.107 -80.0293 C 98.7793 -91.5527 82.7148 -91.8457 69.6777 -79.7852 L 60.5469 -71.3379 C 67.3828 -74.4629 73.0957 -70.9473 78.125 -65.8691 L 95.8984 -48.0957 C 101.025 -42.9688 104.541 -37.3535 101.416 -30.4199 Z M 58.3496 -10.5957 C 63.7695 -5.17578 68.9453 -5.0293 74.5117 -10.5957 L 89.209 -25.293 C 94.8242 -30.9082 94.7266 -36.0352 89.2578 -41.4551 L 71.4844 -59.2285 C 66.0645 -64.6484 60.9375 -64.7949 55.3223 -59.1797 L 40.625 -44.4824 C 35.0586 -38.916 35.2051 -33.7402 40.625 -28.3203 Z M 61.2305 -42.4316 C 59.1309 -44.5801 59.1309 -47.9492 61.1816 -50 C 63.2812 -52.0996 66.6016 -52.0996 68.75 -50 C 70.8008 -47.9492 70.8496 -44.6289 68.6035 -42.4316 C 66.6016 -40.4785 63.2324 -40.4297 61.2305 -42.4316 Z M 49.8047 -31.1523 C 47.7051 -33.252 47.7051 -36.5234 49.8047 -38.6719 C 51.8555 -40.8203 55.2246 -40.7715 57.373 -38.5742 C 59.2773 -36.5723 59.4238 -33.252 57.373 -31.2012 C 55.127 -28.9551 51.8555 -29.0527 49.8047 -31.1523 Z M 80.0293 -31.1523 C 77.9785 -29.0527 74.6094 -29.0527 72.4609 -31.2012 C 70.459 -33.2031 70.459 -36.6211 72.4609 -38.5742 C 74.707 -40.7715 77.9785 -40.7715 80.0293 -38.6719 C 82.1777 -36.5723 82.1777 -33.252 80.0293 -31.1523 Z M 19.8242 10.2051 C 31.1035 21.7285 47.168 22.0215 60.2539 10.0098 L 69.3848 1.5625 C 62.5488 4.63867 56.8359 1.12305 51.7578 -3.95508 L 33.9844 -21.7285 C 28.9062 -26.8066 25.3906 -32.4707 28.5156 -39.4043 L 20.0684 -30.2246 C 8.1543 -17.1875 8.49609 -1.26953 19.8242 10.2051 Z M 61.1816 -19.7754 C 59.1309 -21.8262 58.9844 -25.0488 61.2305 -27.3438 C 63.2812 -29.3945 66.6504 -29.2969 68.6035 -27.3438 C 70.752 -25.1465 70.8496 -21.8262 68.75 -19.7754 C 66.5527 -17.627 63.2812 -17.627 61.1816 -19.7754 Z"/>
  </g>
  <g id="Heavy-M" transform="matrix(1 0 0 1 2572.53 1126)">
   <path d="M 100.049 -31.2988 L 108.35 -40.332 C 120.068 -52.8809 119.727 -68.4082 108.74 -79.5898 C 97.7051 -90.7715 82.0801 -91.0156 69.4824 -79.1992 L 60.498 -70.8984 C 66.748 -73.5352 72.168 -70.6055 77.1484 -65.625 L 94.9219 -47.8516 C 99.9512 -42.8223 102.686 -37.5488 100.049 -31.2988 Z M 57.2754 -10.5957 C 62.5977 -5.27344 67.6758 -5.12695 73.0957 -10.5957 L 88.5254 -26.0254 C 93.9941 -31.4941 93.8965 -36.4746 88.5742 -41.7969 L 70.9473 -59.4238 C 65.6738 -64.7461 60.6445 -64.8438 55.1758 -59.375 L 39.7461 -43.9453 C 34.3262 -38.5254 34.4238 -33.4473 39.7461 -28.125 Z M 60.5469 -42.3828 C 58.4961 -44.4336 58.4961 -47.7051 60.498 -49.707 C 62.5488 -51.7578 65.7715 -51.7578 67.8223 -49.707 C 69.8242 -47.7051 69.873 -44.5312 67.6758 -42.3828 C 65.7715 -40.5273 62.5 -40.4785 60.5469 -42.3828 Z M 49.3652 -31.3477 C 47.3145 -33.3984 47.3145 -36.5234 49.3652 -38.6719 C 51.3672 -40.7227 54.6387 -40.625 56.6895 -38.5254 C 58.5938 -36.6211 58.6914 -33.3984 56.6895 -31.3965 C 54.541 -29.248 51.3672 -29.3457 49.3652 -31.3477 Z M 78.8574 -31.3477 C 76.8555 -29.3457 73.6328 -29.3457 71.5332 -31.3965 C 69.6289 -33.3496 69.6289 -36.6699 71.5332 -38.5254 C 73.7305 -40.6738 76.8555 -40.625 78.8574 -38.6719 C 80.9082 -36.5723 80.9082 -33.3984 78.8574 -31.3477 Z M 19.5801 9.57031 C 30.5664 20.8008 46.1914 21.0449 58.8379 9.22852 L 67.7734 0.878906 C 61.5234 3.56445 56.1523 0.634766 51.1719 -4.3457 L 33.3984 -22.1191 C 28.3691 -27.1484 25.5859 -32.373 28.2715 -38.6719 L 19.9707 -29.6387 C 8.20312 -17.0898 8.54492 -1.61133 19.5801 9.57031 Z M 60.498 -20.2148 C 58.4961 -22.2168 58.3984 -25.3906 60.5469 -27.5391 C 62.5488 -29.541 65.8203 -29.4922 67.6758 -27.5391 C 69.7754 -25.4395 69.873 -22.2168 67.8223 -20.2148 C 65.6738 -18.1641 62.5488 -18.1641 60.498 -20.2148 Z"/>
  </g>
  <g id="Bold-M" transform="matrix(1 0 0 1 2276.72 1126)">
   <path d="M 98.5352 -32.2754 L 106.689 -41.1133 C 118.164 -53.2227 117.92 -68.2129 107.227 -79.0527 C 96.5332 -89.8926 81.3965 -90.0391 69.2871 -78.5156 L 60.4492 -70.3613 C 66.0156 -72.5098 71.1426 -70.2637 76.0254 -65.332 L 93.7988 -47.5586 C 98.7305 -42.627 100.684 -37.8418 98.5352 -32.2754 Z M 56.1035 -10.5469 C 61.2793 -5.41992 66.2109 -5.27344 71.4844 -10.5469 L 87.7441 -26.8066 C 93.0664 -32.1289 92.9688 -37.0117 87.793 -42.1875 L 70.3613 -59.6191 C 65.1855 -64.7949 60.3027 -64.8926 54.9805 -59.5703 L 38.7207 -43.3105 C 33.4473 -38.0371 33.5938 -33.1055 38.7207 -27.9297 Z M 59.8145 -42.334 C 57.8125 -44.3359 57.8125 -47.4609 59.7168 -49.4141 C 61.7188 -51.3672 64.7949 -51.3672 66.7969 -49.4141 C 68.7012 -47.4609 68.75 -44.3848 66.6992 -42.334 C 64.7949 -40.5273 61.6699 -40.4785 59.8145 -42.334 Z M 48.9258 -31.543 C 46.9238 -33.5449 46.9238 -36.5723 48.9258 -38.623 C 50.8789 -40.5762 53.9551 -40.5273 55.957 -38.5254 C 57.7637 -36.6699 57.8613 -33.5449 55.957 -31.6406 C 53.8574 -29.541 50.8301 -29.6387 48.9258 -31.543 Z M 77.5879 -31.543 C 75.6348 -29.6387 72.5098 -29.6387 70.5078 -31.6406 C 68.6523 -33.4961 68.6523 -36.6699 70.5078 -38.5254 C 72.6074 -40.5762 75.6348 -40.5273 77.5879 -38.623 C 79.541 -36.6211 79.541 -33.5449 77.5879 -31.543 Z M 19.2871 8.88672 C 29.9805 19.7266 45.1172 19.9219 57.2266 8.34961 L 65.9668 0.146484 C 60.4492 2.34375 55.4199 0.146484 50.5371 -4.73633 L 32.7637 -22.5586 C 27.832 -27.4902 25.8301 -32.2754 28.0273 -37.8418 L 19.8242 -29.0527 C 8.30078 -16.9922 8.59375 -1.95312 19.2871 8.88672 Z M 59.7168 -20.752 C 57.8125 -22.6562 57.7148 -25.6836 59.8145 -27.7832 C 61.7188 -29.6875 64.8438 -29.6387 66.6992 -27.7832 C 68.6523 -25.7812 68.75 -22.6562 66.7969 -20.752 C 64.7461 -18.75 61.7188 -18.75 59.7168 -20.752 Z"/>
  </g>
  <g id="Semibold-M" transform="matrix(1 0 0 1 1980.64 1126)">
   <path d="M 97.4609 -32.9102 L 105.518 -41.6504 C 116.846 -53.418 116.65 -68.0664 106.152 -78.6621 C 95.7031 -89.2578 80.9082 -89.4043 69.1406 -78.0273 L 60.4492 -69.9707 C 65.4785 -71.8262 70.4102 -70.0195 75.2441 -65.1367 L 93.0664 -47.3633 C 97.9004 -42.4805 99.2676 -38.0371 97.4609 -32.9102 Z M 55.3223 -10.5469 C 60.3516 -5.51758 65.2344 -5.37109 70.4102 -10.5469 L 87.207 -27.3926 C 92.4316 -32.6172 92.334 -37.4023 87.2559 -42.4316 L 69.9219 -59.7656 C 64.8926 -64.8438 60.1074 -64.9414 54.834 -59.7168 L 38.0371 -42.9199 C 32.8613 -37.7441 33.0078 -32.8613 38.0371 -27.832 Z M 59.2773 -42.334 C 57.3242 -44.2871 57.3242 -47.3145 59.1797 -49.1699 C 61.1328 -51.123 64.1113 -51.123 66.0645 -49.1699 C 67.9199 -47.3145 68.0176 -44.3359 65.9668 -42.334 C 64.1602 -40.5273 61.084 -40.5273 59.2773 -42.334 Z M 48.584 -31.7383 C 46.6309 -33.6426 46.6309 -36.6211 48.584 -38.5742 C 50.4883 -40.5273 53.5156 -40.4297 55.4199 -38.4766 C 57.2266 -36.6699 57.3242 -33.6426 55.4199 -31.7871 C 53.418 -29.7852 50.4395 -29.834 48.584 -31.7383 Z M 76.6602 -31.7383 C 74.8047 -29.834 71.7285 -29.834 69.8242 -31.7871 C 68.0176 -33.5938 68.0176 -36.7188 69.8242 -38.4766 C 71.8262 -40.4785 74.8047 -40.4297 76.6602 -38.5742 C 78.6133 -36.6211 78.6133 -33.6426 76.6602 -31.7383 Z M 19.0918 8.39844 C 29.541 18.9941 44.3848 19.1895 56.1035 7.71484 L 64.7461 -0.341797 C 59.668 1.46484 54.9316 -0.195312 50.0977 -5.0293 L 32.2754 -22.8516 C 27.4414 -27.7344 26.0254 -32.2266 27.832 -37.3047 L 19.7754 -28.6133 C 8.34961 -16.9434 8.64258 -2.19727 19.0918 8.39844 Z M 59.1797 -21.0938 C 57.3242 -22.9492 57.2266 -25.9277 59.2773 -27.9297 C 61.1328 -29.834 64.209 -29.7852 65.9668 -27.9297 C 67.9199 -25.9766 68.0176 -22.9492 66.0645 -21.0938 C 64.0625 -19.1406 61.1328 -19.1406 59.1797 -21.0938 Z"/>
  </g>
  <g id="Medium-M" transform="matrix(1 0 0 1 1684.4 1126)">
   <path d="M 96.6797 -33.4473 L 104.639 -42.0898 C 115.869 -53.5645 115.674 -67.9688 105.371 -78.418 C 95.0684 -88.8184 80.5176 -88.916 69.043 -77.6855 L 60.4004 -69.7266 C 65.1367 -71.2402 69.873 -69.8242 74.6582 -64.9902 L 92.4805 -47.2168 C 97.3145 -42.3828 98.2422 -38.1348 96.6797 -33.4473 Z M 54.6875 -10.5469 C 59.668 -5.56641 64.4531 -5.46875 69.5801 -10.5469 L 86.8164 -27.7832 C 91.9434 -32.959 91.8457 -37.6953 86.8652 -42.6758 L 69.6289 -59.9121 C 64.6484 -64.8926 59.9121 -64.9902 54.7852 -59.8145 L 37.5 -42.5781 C 32.4219 -37.5 32.5195 -32.7148 37.5 -27.7344 Z M 58.8867 -42.2852 C 56.9824 -44.1895 56.9824 -47.168 58.7891 -49.0234 C 60.6934 -50.9277 63.623 -50.9277 65.5273 -49.0234 C 67.334 -47.168 67.4316 -44.2871 65.4297 -42.2852 C 63.6719 -40.5273 60.6445 -40.5273 58.8867 -42.2852 Z M 48.3398 -31.8359 C 46.4355 -33.7402 46.4355 -36.6211 48.3398 -38.5742 C 50.1953 -40.4785 53.125 -40.3809 55.0293 -38.4766 C 56.7871 -36.7188 56.8848 -33.7402 55.0293 -31.8848 C 53.0762 -29.9316 50.1465 -29.9805 48.3398 -31.8359 Z M 75.9766 -31.8359 C 74.1699 -29.9805 71.1914 -29.9805 69.2871 -31.8848 C 67.4805 -33.6914 67.4805 -36.7188 69.2871 -38.4766 C 71.2402 -40.4297 74.1699 -40.3809 75.9766 -38.5742 C 77.8809 -36.6699 77.8809 -33.7402 75.9766 -31.8359 Z M 18.9453 8.00781 C 29.1992 18.457 43.7988 18.6035 55.2734 7.27539 L 63.8184 -0.732422 C 59.1309 0.830078 54.541 -0.439453 49.7559 -5.27344 L 31.9336 -23.0957 C 27.0996 -27.8809 26.123 -32.1777 27.6855 -36.8652 L 19.6777 -28.3203 C 8.39844 -16.8457 8.64258 -2.39258 18.9453 8.00781 Z M 58.7891 -21.3379 C 56.9824 -23.1934 56.8848 -26.123 58.8867 -28.0762 C 60.6934 -29.9316 63.6719 -29.834 65.4297 -28.0762 C 67.334 -26.1719 67.4316 -23.1934 65.5273 -21.3379 C 63.5742 -19.4824 60.6934 -19.4824 58.7891 -21.3379 Z"/>
  </g>
  <g id="Regular-M" transform="matrix(1 0 0 1 1388.3 1126)">
   <path d="M 95.6543 -34.082 L 103.467 -42.627 C 114.6 -53.7598 114.404 -67.8711 104.346 -78.0273 C 94.2871 -88.2324 80.0293 -88.2812 68.8965 -77.1973 L 60.4004 -69.3359 C 64.5996 -70.5566 69.1406 -69.5801 73.9258 -64.7949 L 91.6992 -47.0215 C 96.4844 -42.2852 96.8262 -38.3301 95.6543 -34.082 Z M 53.9062 -10.5469 C 58.7891 -5.66406 63.4766 -5.51758 68.457 -10.5469 L 86.2793 -28.3691 C 91.3086 -33.3984 91.2109 -38.0371 86.3281 -42.9199 L 69.1895 -60.0586 C 64.3066 -64.9414 59.7168 -65.0391 54.6387 -59.9609 L 36.8164 -42.1875 C 31.8359 -37.1582 31.9336 -32.4707 36.8164 -27.5879 Z M 58.3496 -42.2852 C 56.4941 -44.1406 56.4941 -47.0215 58.3008 -48.8281 C 60.1562 -50.6836 62.9883 -50.6836 64.7949 -48.8281 C 66.6016 -47.0215 66.6504 -44.1895 64.7461 -42.2852 C 63.0371 -40.5762 60.0586 -40.5762 58.3496 -42.2852 Z M 47.998 -31.9824 C 46.1426 -33.8379 46.1426 -36.6699 47.998 -38.5254 C 49.8535 -40.3809 52.6855 -40.332 54.541 -38.4766 C 56.25 -36.7188 56.2988 -33.8379 54.541 -32.0801 C 52.6367 -30.127 49.8047 -30.2246 47.998 -31.9824 Z M 75.0977 -31.9824 C 73.291 -30.2246 70.4102 -30.2246 68.5547 -32.0801 C 66.8457 -33.7891 66.8457 -36.7188 68.5547 -38.4766 C 70.459 -40.3809 73.291 -40.332 75.0977 -38.5254 C 76.9531 -36.6699 76.9531 -33.8379 75.0977 -31.9824 Z M 18.75 7.51953 C 28.8086 17.7246 43.0664 17.8223 54.1992 6.68945 L 62.5977 -1.2207 C 58.3496 0 54.0527 -0.830078 49.3164 -5.56641 L 31.4941 -23.3887 C 26.709 -28.125 26.3184 -32.0801 27.4902 -36.3281 L 19.6289 -27.8809 C 8.44727 -16.7969 8.69141 -2.63672 18.75 7.51953 Z M 58.3008 -21.7285 C 56.4941 -23.4863 56.4453 -26.3184 58.3496 -28.2227 C 60.1562 -30.0293 63.0371 -29.9805 64.7461 -28.2227 C 66.6016 -26.416 66.6504 -23.4863 64.7949 -21.7285 C 62.8906 -19.873 60.1562 -19.873 58.3008 -21.7285 Z"/>
  </g>
  <g id="Light-M" transform="matrix(1 0 0 1 1092.54 1126)">
   <path d="M 93.0176 -33.3984 L 101.758 -42.7734 C 112.5 -53.7109 112.549 -67.5293 102.783 -77.3926 C 92.9688 -87.3047 79.0039 -87.0605 68.1152 -76.416 L 58.7402 -67.6758 C 62.5488 -69.5312 67.4316 -68.6523 71.7285 -64.3066 L 90.2832 -45.8008 C 94.5801 -41.4551 94.873 -37.207 93.0176 -33.3984 Z M 53.0273 -10.791 C 57.8613 -5.95703 62.5488 -5.85938 67.4805 -10.791 L 85.0586 -28.418 C 90.0879 -33.3984 89.9902 -37.9883 85.1562 -42.8223 L 68.2129 -59.7656 C 63.3789 -64.5996 58.7891 -64.6973 53.8086 -59.7168 L 36.1816 -42.1387 C 31.2012 -37.1582 31.3477 -32.5195 36.1816 -27.6855 Z M 57.6172 -42.4805 C 55.8594 -44.2383 55.8594 -46.9238 57.5684 -48.6328 C 59.3262 -50.3418 61.9629 -50.3418 63.6719 -48.6328 C 65.3809 -46.9238 65.4297 -44.2871 63.623 -42.4805 C 62.0117 -40.8691 59.2285 -40.8691 57.6172 -42.4805 Z M 47.2656 -32.1777 C 45.5078 -33.9355 45.5078 -36.5723 47.2656 -38.3301 C 49.0234 -40.0879 51.6602 -40.0391 53.418 -38.2812 C 55.0293 -36.6211 55.0781 -33.9355 53.418 -32.2754 C 51.6113 -30.4199 48.9746 -30.5176 47.2656 -32.1777 Z M 73.9746 -32.1777 C 72.2656 -30.5176 69.5801 -30.5176 67.8223 -32.2754 C 66.2109 -33.8867 66.2109 -36.6211 67.8223 -38.2812 C 69.6777 -40.0879 72.2656 -40.0391 73.9746 -38.3301 C 75.7324 -36.5723 75.7324 -33.9355 73.9746 -32.1777 Z M 18.457 6.93359 C 28.2227 16.8457 42.2852 16.748 53.0762 5.9082 L 62.2559 -2.97852 C 58.3984 -1.12305 54.1016 -1.5625 49.8047 -5.9082 L 31.25 -24.4629 C 26.9043 -28.8086 26.4648 -33.0566 28.3203 -36.9141 L 19.4824 -27.7344 C 8.64258 -16.9434 8.69141 -3.02734 18.457 6.93359 Z M 57.5684 -21.9238 C 55.8594 -23.584 55.8105 -26.2207 57.6172 -28.0273 C 59.3262 -29.7363 62.0117 -29.6875 63.623 -28.0273 C 65.3809 -26.2695 65.4297 -23.584 63.6719 -21.9238 C 61.8652 -20.166 59.3262 -20.166 57.5684 -21.9238 Z"/>
  </g>
  <g id="Thin-M" transform="matrix(1 0 0 1 797.072 1126)">
   <path d="M 89.5508 -32.4219 L 99.5117 -42.9688 C 109.717 -53.6133 110.156 -67.041 100.684 -76.5625 C 91.2598 -86.084 77.6855 -85.498 67.0898 -75.3906 L 56.543 -65.4297 C 59.8633 -68.1152 65.0879 -67.3828 68.8477 -63.623 L 88.3301 -44.1406 C 92.0898 -40.3809 92.2852 -35.6934 89.5508 -32.4219 Z M 51.9531 -11.1816 C 56.6895 -6.39648 61.2793 -6.25 66.1621 -11.1816 L 83.4961 -28.5645 C 88.4277 -33.4473 88.3301 -37.9395 83.5449 -42.7246 L 66.8945 -59.4238 C 62.1094 -64.209 57.5684 -64.2578 52.6855 -59.375 L 35.3027 -42.041 C 30.4199 -37.1582 30.5176 -32.5684 35.3027 -27.7832 Z M 56.6406 -42.7246 C 55.0293 -44.3848 55.0293 -46.7773 56.5918 -48.3398 C 58.2031 -49.9512 60.5957 -49.9512 62.207 -48.3398 C 63.7695 -46.7773 63.8184 -44.4336 62.1582 -42.7246 C 60.6445 -41.2598 58.1543 -41.2598 56.6406 -42.7246 Z M 46.3379 -32.4707 C 44.6777 -34.082 44.6777 -36.4258 46.3379 -38.0859 C 47.9492 -39.6973 50.293 -39.5996 51.9043 -37.9883 C 53.418 -36.5234 53.4668 -34.082 51.9043 -32.5195 C 50.2441 -30.8594 47.8516 -30.9082 46.3379 -32.4707 Z M 72.5098 -32.4707 C 70.9473 -30.9082 68.5059 -30.9082 66.8945 -32.5195 C 65.3809 -34.0332 65.3809 -36.5234 66.8945 -37.9883 C 68.5547 -39.6973 70.9473 -39.5996 72.5098 -38.0859 C 74.1211 -36.4258 74.1211 -34.082 72.5098 -32.4707 Z M 18.0664 6.05469 C 27.4414 15.6738 41.2598 15.332 51.6602 4.88281 L 61.8164 -5.27344 C 58.4961 -2.53906 54.1992 -2.63672 50.4395 -6.39648 L 30.8594 -25.9277 C 27.1484 -29.6875 26.709 -34.375 29.3945 -37.7441 L 19.2871 -27.4902 C 8.88672 -17.0898 8.64258 -3.51562 18.0664 6.05469 Z M 56.5918 -22.168 C 55.0293 -23.7305 54.9805 -26.0742 56.6406 -27.7832 C 58.2031 -29.3457 60.6445 -29.2969 62.1582 -27.7832 C 63.7695 -26.1719 63.8184 -23.7305 62.207 -22.168 C 60.5469 -20.5566 58.2031 -20.5566 56.5918 -22.168 Z"/>
  </g>
  <g id="Ultralight-M" transform="matrix(1 0 0 1 500.995 1126)">
   <path d="M 87.793 -31.9336 C 87.9395 -32.0801 88.1348 -32.2266 88.2812 -32.4219 L 98.3887 -43.0664 C 108.301 -53.5645 108.887 -66.7969 99.6094 -76.123 C 90.332 -85.4492 76.9531 -84.668 66.5527 -74.8535 L 55.8594 -64.6484 C 55.7129 -64.5508 55.5664 -64.4043 55.4199 -64.2578 L 55.8594 -64.6484 C 58.9355 -67.3828 64.0625 -66.6016 67.3828 -63.2812 L 87.3535 -43.3105 C 90.625 -39.9902 90.918 -35.4492 88.2812 -32.4219 Z M 51.3672 -11.3281 C 56.1035 -6.5918 60.6445 -6.49414 65.5273 -11.3281 L 82.7148 -28.6133 C 87.5488 -33.4473 87.5 -37.9395 82.7637 -42.6758 L 66.2109 -59.2285 C 61.4746 -63.9648 56.9824 -64.0137 52.0996 -59.1797 L 34.8633 -41.9922 C 29.9805 -37.1094 30.127 -32.5684 34.8633 -27.832 Z M 56.1523 -42.8711 C 54.6387 -44.4336 54.6387 -46.7285 56.1035 -48.1934 C 57.666 -49.7559 59.9121 -49.7559 61.4258 -48.1934 C 62.9395 -46.7285 62.9883 -44.4824 61.377 -42.8711 C 59.9609 -41.4551 57.6172 -41.4551 56.1523 -42.8711 Z M 45.8008 -32.5684 C 44.2871 -34.1309 44.2871 -36.377 45.8008 -37.9395 C 47.3633 -39.502 49.6094 -39.4043 51.1719 -37.8906 C 52.5879 -36.4258 52.6367 -34.1309 51.1719 -32.666 C 49.5605 -31.0547 47.3145 -31.1035 45.8008 -32.5684 Z M 71.7285 -32.5684 C 70.2637 -31.1035 67.9688 -31.1035 66.4062 -32.666 C 64.9414 -34.082 64.9414 -36.4258 66.4062 -37.8906 C 68.0176 -39.502 70.2637 -39.4043 71.7285 -37.9395 C 73.291 -36.377 73.291 -34.1309 71.7285 -32.5684 Z M 17.8711 5.66406 C 27.0508 15.0391 40.7227 14.5996 50.9277 4.3457 L 61.6211 -6.44531 C 58.4961 -3.27148 54.1992 -3.125 50.7324 -6.5918 L 30.7129 -26.6602 C 27.2461 -30.127 26.8066 -35.0586 29.9316 -38.1836 L 19.1895 -27.3926 C 8.98438 -17.1875 8.64258 -3.75977 17.8711 5.66406 Z M 56.1035 -22.3145 C 54.6387 -23.7793 54.541 -26.0254 56.1523 -27.6367 C 57.666 -29.1504 59.9609 -29.0527 61.377 -27.6367 C 62.9395 -26.0742 62.9883 -23.7793 61.4258 -22.3145 C 59.8145 -20.752 57.666 -20.752 56.1035 -22.3145 Z"/>
  </g>
  <g id="Black-S" transform="matrix(1 0 0 1 2882.57 696)">
   <path d="M 79.3945 -31.543 L 85.9863 -38.7207 C 95.3125 -48.877 95.0195 -61.3281 86.1816 -70.3125 C 77.3438 -79.2969 64.7949 -79.541 54.5898 -70.1172 L 47.4609 -63.5254 C 52.7832 -65.918 57.2266 -63.1836 61.1816 -59.2285 L 75.0977 -45.3125 C 79.1016 -41.3086 81.7871 -36.9141 79.3945 -31.543 Z M 45.6543 -15.918 C 49.9023 -11.6699 53.9551 -11.5723 58.3008 -15.918 L 69.873 -27.4902 C 74.2676 -31.8848 74.1699 -35.8887 69.9219 -40.1367 L 56.0059 -54.0527 C 51.7578 -58.3008 47.7539 -58.3984 43.3594 -54.0039 L 31.7871 -42.4316 C 27.4414 -38.0859 27.5391 -34.0332 31.7871 -29.7852 Z M 47.9492 -40.8691 C 46.2891 -42.5293 46.2891 -45.166 47.9004 -46.7773 C 49.5605 -48.4375 52.1484 -48.4375 53.8086 -46.7773 C 55.4199 -45.166 55.4688 -42.5781 53.7109 -40.8691 C 52.1484 -39.3555 49.5117 -39.3066 47.9492 -40.8691 Z M 39.0137 -32.0312 C 37.3535 -33.6914 37.3535 -36.2305 39.0137 -37.9395 C 40.625 -39.5996 43.2617 -39.5508 44.9219 -37.8418 C 46.4355 -36.2793 46.5332 -33.6914 44.9219 -32.0801 C 43.1641 -30.3223 40.625 -30.4199 39.0137 -32.0312 Z M 62.6465 -32.0312 C 61.0352 -30.4199 58.3984 -30.4199 56.7383 -32.0801 C 55.1758 -33.6426 55.1758 -36.3281 56.7383 -37.8418 C 58.4961 -39.5508 61.0352 -39.5508 62.6465 -37.9395 C 64.3066 -36.2793 64.3066 -33.6914 62.6465 -32.0312 Z M 15.5273 0.341797 C 24.3652 9.32617 36.9141 9.57031 47.1191 0.146484 L 54.248 -6.44531 C 48.9258 -4.05273 44.4824 -6.78711 40.5273 -10.7422 L 26.6113 -24.6582 C 22.6074 -28.6621 19.9219 -33.0566 22.3145 -38.4277 L 15.7227 -31.25 C 6.39648 -21.0938 6.68945 -8.64258 15.5273 0.341797 Z M 47.9004 -23.1445 C 46.2891 -24.7559 46.1914 -27.2949 47.9492 -29.0527 C 49.5605 -30.6641 52.1973 -30.6152 53.7109 -29.0527 C 55.3711 -27.3438 55.4688 -24.7559 53.8086 -23.1445 C 52.0996 -21.4844 49.5605 -21.4844 47.9004 -23.1445 Z"/>
  </g>
  <g id="Heavy-S" transform="matrix(1 0 0 1 2586.37 696)">
   <path d="M 78.6133 -32.2754 L 85.0098 -39.2578 C 94.2383 -49.0723 93.9453 -61.2305 85.3027 -70.0195 C 76.6602 -78.8086 64.4043 -79.0039 54.4922 -69.7266 L 47.6074 -63.3301 C 52.4902 -65.332 56.6895 -63.0371 60.6445 -59.082 L 74.4629 -45.2637 C 78.4668 -41.2598 80.6152 -37.207 78.6133 -32.2754 Z M 44.9219 -15.8691 C 49.0723 -11.7188 53.0273 -11.6211 57.2754 -15.8691 L 69.4336 -28.0273 C 73.7305 -32.3242 73.6328 -36.2793 69.4824 -40.4297 L 55.6641 -54.248 C 51.5137 -58.3984 47.6074 -58.4961 43.3105 -54.1992 L 31.1523 -42.041 C 26.9043 -37.793 27.002 -33.7891 31.1523 -29.6387 Z M 47.4609 -40.8203 C 45.8496 -42.4316 45.8496 -45.0195 47.4121 -46.582 C 49.0723 -48.1934 51.5625 -48.1934 53.2227 -46.582 C 54.7852 -45.0195 54.834 -42.4805 53.125 -40.8203 C 51.6113 -39.3555 49.0234 -39.3066 47.4609 -40.8203 Z M 38.7207 -32.1777 C 37.1094 -33.7891 37.1094 -36.2793 38.7207 -37.9395 C 40.332 -39.5508 42.8711 -39.502 44.5312 -37.8418 C 45.9961 -36.3281 46.0938 -33.7891 44.5312 -32.2266 C 42.8223 -30.5176 40.332 -30.6152 38.7207 -32.1777 Z M 61.8652 -32.1777 C 60.3027 -30.6152 57.7148 -30.6152 56.1035 -32.2266 C 54.541 -33.7402 54.541 -36.377 56.1035 -37.8418 C 57.8125 -39.502 60.3027 -39.502 61.8652 -37.9395 C 63.4766 -36.3281 63.4766 -33.7891 61.8652 -32.1777 Z M 15.332 -0.0488281 C 23.9746 8.69141 36.2305 8.93555 46.1426 -0.341797 L 53.0273 -6.73828 C 48.1445 -4.78516 43.9453 -7.03125 39.9902 -10.9863 L 26.1719 -24.8535 C 22.168 -28.8086 20.0195 -32.8613 22.0215 -37.793 L 15.625 -30.8594 C 6.39648 -20.9961 6.68945 -8.83789 15.332 -0.0488281 Z M 47.4121 -23.4863 C 45.8496 -25.0488 45.752 -27.5391 47.4609 -29.248 C 49.0723 -30.8105 51.6113 -30.7617 53.125 -29.248 C 54.7363 -27.5879 54.834 -25.0488 53.2227 -23.4863 C 51.5137 -21.875 49.0723 -21.875 47.4121 -23.4863 Z"/>
  </g>
  <g id="Bold-S" transform="matrix(1 0 0 1 2290.22 696)">
   <path d="M 77.7832 -33.1055 L 83.9355 -39.8438 C 93.0176 -49.3164 92.7734 -61.1328 84.3262 -69.6777 C 75.8789 -78.2715 63.9648 -78.4668 54.4434 -69.2871 L 47.7539 -63.1348 C 52.1973 -64.6484 56.1035 -62.8906 60.0586 -58.9355 L 73.8281 -45.2148 C 77.7832 -41.2109 79.2969 -37.5488 77.7832 -33.1055 Z M 44.1406 -15.8203 C 48.1934 -11.8164 52.0508 -11.7188 56.2012 -15.8203 L 68.9941 -28.6621 C 73.1934 -32.8613 73.0957 -36.6699 69.043 -40.7227 L 55.3223 -54.4434 C 51.2695 -58.4961 47.4609 -58.5449 43.2617 -54.3945 L 30.4688 -41.5527 C 26.3184 -37.4023 26.416 -33.5449 30.4688 -29.4922 Z M 46.9727 -40.7715 C 45.4102 -42.334 45.4102 -44.8242 46.9238 -46.3867 C 48.5352 -47.9492 50.9766 -47.9492 52.5391 -46.3867 C 54.1016 -44.8242 54.1504 -42.3828 52.4902 -40.7715 C 50.9766 -39.3066 48.4863 -39.2578 46.9727 -40.7715 Z M 38.4766 -32.3242 C 36.9141 -33.8867 36.9141 -36.3281 38.4766 -37.9395 C 40.0391 -39.502 42.4805 -39.4531 44.0918 -37.8418 C 45.5566 -36.377 45.6055 -33.8867 44.0918 -32.373 C 42.4316 -30.7129 39.9902 -30.7617 38.4766 -32.3242 Z M 60.9863 -32.3242 C 59.4727 -30.7617 56.9824 -30.7617 55.3711 -32.373 C 53.9062 -33.8379 53.9062 -36.377 55.3711 -37.8418 C 57.0312 -39.502 59.4727 -39.4531 60.9863 -37.9395 C 62.5977 -36.3281 62.5977 -33.8867 60.9863 -32.3242 Z M 15.1855 -0.537109 C 23.584 8.00781 35.498 8.20312 45.0195 -0.927734 L 51.709 -7.08008 C 47.3145 -5.56641 43.4082 -7.32422 39.4531 -11.2793 L 25.6836 -25.0488 C 21.7285 -29.0039 20.2148 -32.666 21.7285 -37.1094 L 15.5762 -30.4199 C 6.44531 -20.8984 6.73828 -9.08203 15.1855 -0.537109 Z M 46.9238 -23.8281 C 45.4102 -25.3906 45.3613 -27.7832 46.9727 -29.4434 C 48.5352 -31.0059 51.0254 -30.957 52.4902 -29.4434 C 54.0527 -27.832 54.1504 -25.3906 52.5391 -23.8281 C 50.9277 -22.2656 48.5352 -22.2656 46.9238 -23.8281 Z"/>
  </g>
  <g id="Semibold-S" transform="matrix(1 0 0 1 1993.93 696)">
   <path d="M 77.1973 -33.6914 L 83.2031 -40.2344 C 92.1875 -49.5117 91.9434 -61.084 83.6426 -69.4824 C 75.3906 -77.8809 63.7207 -78.0273 54.3945 -68.9941 L 47.9004 -63.0371 C 51.9531 -64.209 55.7129 -62.793 59.668 -58.8379 L 73.3398 -45.166 C 77.2949 -41.2109 78.3691 -37.793 77.1973 -33.6914 Z M 43.5547 -15.8203 C 47.5586 -11.8164 51.3672 -11.7188 55.4199 -15.8203 L 68.7012 -29.0527 C 72.8027 -33.2031 72.7051 -36.9629 68.75 -40.918 L 55.127 -54.541 C 51.123 -58.5449 47.3633 -58.6426 43.2617 -54.4922 L 29.9805 -41.2598 C 25.9277 -37.207 26.0254 -33.3496 29.9805 -29.3945 Z M 46.6309 -40.7227 C 45.1172 -42.2852 45.1172 -44.7266 46.582 -46.2402 C 48.1445 -47.7539 50.5371 -47.7539 52.0996 -46.2402 C 53.6133 -44.7266 53.6621 -42.334 52.0508 -40.7227 C 50.5859 -39.3066 48.0957 -39.2578 46.6309 -40.7227 Z M 38.2812 -32.4219 C 36.7188 -33.9844 36.7188 -36.377 38.2812 -37.9395 C 39.7949 -39.4531 42.2363 -39.4043 43.7988 -37.8418 C 45.2148 -36.4258 45.2637 -33.9844 43.7988 -32.4707 C 42.1875 -30.8594 39.7949 -30.9082 38.2812 -32.4219 Z M 60.4004 -32.4219 C 58.8867 -30.9082 56.4453 -30.9082 54.8828 -32.4707 C 53.4668 -33.9355 53.4668 -36.4258 54.8828 -37.8418 C 56.543 -39.4531 58.8867 -39.4043 60.4004 -37.9395 C 61.9629 -36.377 61.9629 -33.9844 60.4004 -32.4219 Z M 15.0391 -0.878906 C 23.291 7.51953 35.0098 7.71484 44.2871 -1.31836 L 50.7812 -7.32422 C 46.7285 -6.15234 43.0176 -7.51953 39.0625 -11.4746 L 25.3418 -25.1953 C 21.3867 -29.1504 20.3125 -32.5195 21.5332 -36.6211 L 15.5273 -30.0781 C 6.49414 -20.8496 6.78711 -9.22852 15.0391 -0.878906 Z M 46.582 -24.1211 C 45.1172 -25.5859 45.0195 -27.9785 46.6309 -29.5898 C 48.1445 -31.1035 50.5859 -31.0547 52.0508 -29.5898 C 53.5645 -28.0273 53.6621 -25.5859 52.0996 -24.1211 C 50.4883 -22.5586 48.1445 -22.5586 46.582 -24.1211 Z"/>
  </g>
  <g id="Medium-S" transform="matrix(1 0 0 1 1697.51 696)">
   <path d="M 76.7578 -34.1309 L 82.6172 -40.5273 C 91.6016 -49.6094 91.3086 -61.0352 83.1543 -69.2871 C 75 -77.5879 63.4766 -77.7344 54.3945 -68.7988 L 47.998 -62.8906 C 51.8066 -63.8672 55.4199 -62.6953 59.375 -58.7402 L 72.998 -45.1172 C 76.9531 -41.1621 77.6855 -37.9883 76.7578 -34.1309 Z M 43.1641 -15.7715 C 47.0703 -11.8652 50.8301 -11.7676 54.8828 -15.7715 L 68.457 -29.3945 C 72.5098 -33.4473 72.4121 -37.1582 68.5059 -41.0645 L 54.9316 -54.6387 C 51.0254 -58.5938 47.3145 -58.6914 43.2129 -54.5898 L 29.6387 -41.0156 C 25.6348 -37.0117 25.7324 -33.252 29.6387 -29.2969 Z M 46.3867 -40.6738 C 44.873 -42.2363 44.873 -44.6289 46.3379 -46.0938 C 47.8516 -47.6562 50.2441 -47.6562 51.7578 -46.0938 C 53.2227 -44.6289 53.2715 -42.2852 51.709 -40.6738 C 50.293 -39.2578 47.8027 -39.2578 46.3867 -40.6738 Z M 38.1348 -32.5195 C 36.6211 -34.0332 36.6211 -36.377 38.1348 -37.8906 C 39.6484 -39.4531 42.041 -39.4043 43.5547 -37.8418 C 44.9707 -36.4258 45.0195 -34.0332 43.5547 -32.5684 C 41.9922 -30.957 39.5996 -31.0059 38.1348 -32.5195 Z M 59.9609 -32.5195 C 58.4961 -31.0059 56.0547 -31.0059 54.541 -32.5684 C 53.125 -33.9844 53.125 -36.4258 54.541 -37.8418 C 56.1035 -39.4531 58.4961 -39.4043 59.9609 -37.8906 C 61.4746 -36.377 61.4746 -34.0332 59.9609 -32.5195 Z M 14.9414 -1.12305 C 23.0957 7.17773 34.6191 7.37305 43.7012 -1.61133 L 50.0977 -7.51953 C 46.2891 -6.54297 42.7246 -7.66602 38.7695 -11.6211 L 25.0977 -25.293 C 21.1426 -29.248 20.4102 -32.4219 21.3379 -36.2793 L 15.4785 -29.8828 C 6.49414 -20.8008 6.78711 -9.375 14.9414 -1.12305 Z M 46.3379 -24.2676 C 44.873 -25.7812 44.8242 -28.125 46.3867 -29.6875 C 47.8516 -31.2012 50.293 -31.1523 51.709 -29.6875 C 53.2227 -28.1738 53.2715 -25.7812 51.7578 -24.2676 C 50.1953 -22.7539 47.8516 -22.7539 46.3379 -24.2676 Z"/>
  </g>
  <g id="Regular-S" transform="matrix(1 0 0 1 1401.19 696)">
   <path d="M 76.1719 -34.7168 L 81.8848 -40.918 C 90.7715 -49.8047 90.5273 -60.9863 82.5195 -69.0918 C 74.4629 -77.1973 63.1836 -77.3438 54.3457 -68.5059 L 48.0957 -62.793 C 51.6113 -63.4277 55.0293 -62.5977 58.9844 -58.6426 L 72.5586 -45.0684 C 76.5137 -41.1133 76.8066 -38.1836 76.1719 -34.7168 Z M 42.627 -15.7715 C 46.4844 -11.9141 50.1953 -11.8164 54.1016 -15.7715 L 68.1641 -29.7852 C 72.168 -33.7891 72.0703 -37.4512 68.2129 -41.3086 L 54.6875 -54.7852 C 50.8301 -58.6426 47.2168 -58.7402 43.2129 -54.7363 L 29.1504 -40.7227 C 25.2441 -36.7676 25.3418 -33.0566 29.1504 -29.1992 Z M 46.0449 -40.6738 C 44.5801 -42.1387 44.5801 -44.5312 45.9961 -45.9473 C 47.5098 -47.4609 49.8047 -47.4609 51.3184 -45.9473 C 52.7832 -44.5312 52.832 -42.1875 51.2695 -40.6738 C 49.8535 -39.2578 47.4609 -39.2578 46.0449 -40.6738 Z M 37.9395 -32.6172 C 36.4746 -34.082 36.4746 -36.4258 37.9395 -37.8906 C 39.4531 -39.4043 41.748 -39.3555 43.2617 -37.8418 C 44.6777 -36.4746 44.7266 -34.082 43.2617 -32.666 C 41.6992 -31.1035 39.4043 -31.1523 37.9395 -32.6172 Z M 59.375 -32.6172 C 57.9102 -31.1523 55.5664 -31.1523 54.0527 -32.666 C 52.6855 -34.0332 52.6855 -36.4746 54.0527 -37.8418 C 55.6152 -39.4043 57.9102 -39.3555 59.375 -37.8906 C 60.8887 -36.4258 60.8887 -34.082 59.375 -32.6172 Z M 14.8438 -1.41602 C 22.8516 6.68945 34.1309 6.88477 42.9688 -2.00195 L 49.1699 -7.76367 C 45.7031 -7.08008 42.334 -7.86133 38.3789 -11.8164 L 24.8047 -25.3906 C 20.8496 -29.3457 20.5078 -32.2754 21.1426 -35.791 L 15.4297 -29.541 C 6.54297 -20.7031 6.78711 -9.52148 14.8438 -1.41602 Z M 45.9961 -24.5605 C 44.5801 -25.9766 44.5312 -28.3203 46.0449 -29.834 C 47.5098 -31.2988 49.8535 -31.25 51.2695 -29.834 C 52.7832 -28.3691 52.832 -25.9766 51.3184 -24.5605 C 49.7559 -23.0469 47.5098 -23.0469 45.9961 -24.5605 Z"/>
  </g>
  <g id="Light-S" transform="matrix(1 0 0 1 1105.31 696)">
   <path d="M 73.877 -34.0332 L 80.3711 -41.0645 C 88.916 -49.7559 88.8672 -60.6445 81.1035 -68.5059 C 73.3398 -76.3672 62.3047 -76.3184 53.6621 -67.7734 L 46.6309 -61.2793 C 49.8047 -62.5 53.4668 -61.7676 57.0312 -58.2031 L 71.2891 -43.9941 C 74.8047 -40.4297 75.0977 -37.207 73.877 -34.0332 Z M 41.8945 -16.0156 C 45.7031 -12.207 49.3164 -12.1094 53.2227 -16.0156 L 67.0898 -29.8828 C 71.0449 -33.7891 70.9473 -37.4023 67.1387 -41.2109 L 53.8086 -54.541 C 50 -58.3496 46.3867 -58.4473 42.4805 -54.4922 L 28.5645 -40.6738 C 24.707 -36.7676 24.8047 -33.1055 28.5645 -29.2969 Z M 45.4102 -40.8203 C 43.9941 -42.2363 43.9941 -44.4336 45.3613 -45.8008 C 46.7773 -47.2168 48.9258 -47.2168 50.3418 -45.8008 C 51.6602 -44.4336 51.709 -42.2852 50.293 -40.8203 C 48.9746 -39.502 46.7285 -39.502 45.4102 -40.8203 Z M 58.3984 -32.7637 C 57.0312 -31.3965 54.834 -31.3965 53.418 -32.8125 C 52.0996 -34.1309 52.0996 -36.377 53.418 -37.6953 C 54.8828 -39.1602 57.0312 -39.1113 58.3984 -37.7441 C 59.7656 -36.3281 59.7656 -34.1797 58.3984 -32.7637 Z M 37.3047 -32.7637 C 35.8887 -34.1797 35.8887 -36.3281 37.3047 -37.7441 C 38.7207 -39.1602 40.8691 -39.1113 42.2852 -37.6953 C 43.5547 -36.377 43.6035 -34.1797 42.2852 -32.8125 C 40.8203 -31.3477 38.6719 -31.3965 37.3047 -32.7637 Z M 14.5508 -1.95312 C 22.3145 5.9082 33.4473 5.9082 41.9922 -2.73438 L 48.9258 -9.27734 C 45.752 -8.05664 42.3828 -8.59375 38.8184 -12.1094 L 24.5605 -26.3672 C 20.9961 -29.9316 20.6543 -33.1543 21.875 -36.3281 L 15.2832 -29.3945 C 6.68945 -20.8496 6.78711 -9.86328 14.5508 -1.95312 Z M 45.3613 -24.707 C 43.9941 -26.0742 43.9453 -28.2227 45.4102 -29.6875 C 46.7773 -31.0547 48.9746 -31.0059 50.293 -29.6875 C 51.6602 -28.2715 51.709 -26.0742 50.3418 -24.707 C 48.877 -23.291 46.7773 -23.291 45.3613 -24.707 Z"/>
  </g>
  <g id="Thin-S" transform="matrix(1 0 0 1 809.694 696)">
   <path d="M 70.8008 -33.2031 L 78.3691 -41.2598 C 86.4746 -49.6582 86.7188 -60.2539 79.248 -67.7734 C 71.7773 -75.293 61.084 -74.9023 52.7344 -66.8945 L 44.7266 -59.3262 C 47.4121 -61.2793 51.416 -60.6445 54.4922 -57.6172 L 69.5801 -42.5293 C 72.6074 -39.4531 72.7539 -35.8887 70.8008 -33.2031 Z M 40.8691 -16.3086 C 44.6289 -12.5488 48.2422 -12.4512 52.0996 -16.3086 L 65.7227 -29.9805 C 69.5801 -33.8379 69.4824 -37.4023 65.7715 -41.1133 L 52.6367 -54.248 C 48.877 -58.0078 45.3125 -58.0566 41.4551 -54.1992 L 27.832 -40.5762 C 23.9746 -36.7188 24.0723 -33.1055 27.832 -29.3945 Z M 44.5801 -41.0645 C 43.2617 -42.334 43.2617 -44.3359 44.5312 -45.5566 C 45.8008 -46.875 47.7051 -46.875 49.0234 -45.5566 C 50.2441 -44.3359 50.293 -42.3828 48.9746 -41.0645 C 47.7539 -39.8438 45.752 -39.8438 44.5801 -41.0645 Z M 57.0801 -33.0078 C 55.8105 -31.7383 53.8574 -31.7383 52.5879 -33.0566 C 51.3672 -34.2285 51.3672 -36.2793 52.5879 -37.4512 C 53.9062 -38.8184 55.8105 -38.7695 57.0801 -37.5 C 58.3496 -36.2305 58.3496 -34.2773 57.0801 -33.0078 Z M 36.4746 -33.0078 C 35.1562 -34.2773 35.1562 -36.2305 36.4746 -37.5 C 37.7441 -38.8184 39.6484 -38.7695 40.9668 -37.4512 C 42.1387 -36.2793 42.1875 -34.2773 40.9668 -33.0566 C 39.5996 -31.6895 37.6953 -31.7383 36.4746 -33.0078 Z M 14.209 -2.68555 C 21.6309 4.88281 32.5195 4.63867 40.7227 -3.61328 L 48.5352 -11.3281 C 45.8008 -9.32617 42.4316 -9.47266 39.3555 -12.5488 L 24.2676 -27.6367 C 21.1914 -30.7129 20.8496 -34.3262 22.8027 -37.0605 L 15.1367 -29.248 C 6.88477 -20.9961 6.78711 -10.2539 14.209 -2.68555 Z M 44.5312 -24.9512 C 43.2617 -26.1719 43.2129 -28.125 44.5801 -29.4434 C 45.8008 -30.7129 47.7539 -30.6641 48.9746 -29.4434 C 50.2441 -28.1738 50.293 -26.1719 49.0234 -24.9512 C 47.6562 -23.6328 45.8008 -23.6328 44.5312 -24.9512 Z"/>
  </g>
  <g id="Ultralight-S" transform="matrix(1 0 0 1 513.544 696)">
   <path d="M 69.2383 -32.7637 L 77.3926 -41.3574 C 85.2539 -49.6094 85.6445 -60.0098 78.3203 -67.3828 C 70.9961 -74.7559 60.498 -74.1699 52.2949 -66.4062 L 43.7012 -58.3008 C 46.1426 -60.6445 50.3906 -60.1074 53.1738 -57.2754 L 68.7012 -41.7969 C 71.4844 -38.9648 71.582 -35.2051 69.2383 -32.7637 Z M 40.3809 -16.4551 C 44.0918 -12.7441 47.6562 -12.6465 51.5137 -16.4551 L 64.9902 -30.0293 C 68.7988 -33.8379 68.75 -37.3535 65.0391 -41.0645 L 52.0508 -54.1016 C 48.291 -57.8125 44.7754 -57.8613 40.9668 -54.0527 L 27.4414 -40.5273 C 23.584 -36.7188 23.6816 -33.1543 27.4414 -29.4434 Z M 44.1406 -41.1621 C 42.8711 -42.4316 42.8711 -44.2383 44.0918 -45.459 C 45.3125 -46.6797 47.1191 -46.6797 48.3398 -45.459 C 49.5117 -44.2383 49.5605 -42.4805 48.291 -41.1621 C 47.168 -40.0391 45.2637 -40.0391 44.1406 -41.1621 Z M 36.0352 -33.1055 C 34.7656 -34.375 34.7656 -36.1328 36.0352 -37.4023 C 37.2559 -38.623 39.0625 -38.5742 40.2832 -37.3535 C 41.4062 -36.1816 41.4551 -34.375 40.2832 -33.1543 C 39.0137 -31.8848 37.207 -31.9336 36.0352 -33.1055 Z M 56.3965 -33.1055 C 55.2246 -31.9336 53.3691 -31.9336 52.1484 -33.1543 C 50.9766 -34.3262 50.9766 -36.1816 52.1484 -37.3535 C 53.418 -38.623 55.2246 -38.5742 56.3965 -37.4023 C 57.6172 -36.1328 57.6172 -34.375 56.3965 -33.1055 Z M 14.0625 -3.07617 C 21.2891 4.3457 32.0312 4.00391 40.0879 -4.10156 L 48.3398 -12.3535 C 45.8496 -10.0098 42.4805 -9.96094 39.6484 -12.7441 L 24.0723 -28.3203 C 21.2891 -31.1035 20.9473 -34.9121 23.291 -37.4023 L 15.0391 -29.1016 C 6.98242 -21.0938 6.78711 -10.498 14.0625 -3.07617 Z M 44.0918 -25.0488 C 42.8711 -26.2695 42.8223 -28.0273 44.1406 -29.3457 C 45.3125 -30.5176 47.168 -30.4688 48.291 -29.3457 C 49.5117 -28.0762 49.5605 -26.2695 48.3398 -25.0488 C 47.0703 -23.8281 45.3125 -23.8281 44.0918 -25.0488 Z"/>
  </g>
 </g>
</svg>
